<?xml version="1.0" encoding="UTF-8" standalone="no"?>
<svg
   width="64"
   height="64"
   version="1.1"
   id="svg3"
   sodipodi:docname="mouse_scroll_right_outline.svg"
   inkscape:version="1.3 (0e150ed6c4, 2023-07-21)"
   inkscape:export-filename="..\mouse_scroll_left_outline.png"
   inkscape:export-xdpi="192"
   inkscape:export-ydpi="192"
   xmlns:inkscape="http://www.inkscape.org/namespaces/inkscape"
   xmlns:sodipodi="http://sodipodi.sourceforge.net/DTD/sodipodi-0.dtd"
   xmlns="http://www.w3.org/2000/svg"
   xmlns:svg="http://www.w3.org/2000/svg">
  <sodipodi:namedview
     id="namedview3"
     pagecolor="#000000"
     bordercolor="#000000"
     borderopacity="0.25"
     inkscape:showpageshadow="2"
     inkscape:pageopacity="0.0"
     inkscape:pagecheckerboard="0"
     inkscape:deskcolor="#d1d1d1"
     inkscape:zoom="18.328125"
     inkscape:cx="23.624893"
     inkscape:cy="29.70844"
     inkscape:window-width="2560"
     inkscape:window-height="1369"
     inkscape:window-x="2552"
     inkscape:window-y="1432"
     inkscape:window-maximized="1"
     inkscape:current-layer="svg3"
     inkscape:export-bgcolor="#27272700" />
  <defs
     id="defs1" />
  <g
     id="g3">
    <path
       stroke="none"
       fill="#FFFFFF"
       d="M21.5 10 L42.5 10 Q50 10.25 50 18 L50 38 Q50 44.6 45.3 49.3 40.6 54 34 54 L30 54 Q23.4 54 18.7 49.3 14 44.6 14 38 L14 18 Q14 10.25 21.5 10 M17 18 L17 28 26 28 26 22 Q26 19.5 27.75 17.75 28.75 16.75 30 16.35 L30 13 22 13 Q17 13 17 18 M47 38 L47 31 37.95 31 Q37.65 32.85 36.25 34.25 34.5 36 32 36 29.5 36 27.75 34.25 26.35 32.85 26.1 31 L17 31 17 38 Q17 43.35 20.85 47.2 24.65 51 30 51 L34 51 Q39.35 51 43.2 47.2 47 43.35 47 38 M42 13 L34 13 34 16.35 Q35.25 16.75 36.25 17.75 38 19.5 38 22 L38 28 47 28 47 18 Q47 13 42 13"
       id="path1" />
    <path
       stroke="none"
       fill="#ffffff"
       d="m 30.85,48.5 -6.4,-6.65 Q 24,41.35 24,40.65 24,39.95 24.45,39.5 24.9,39 25.6,39 h 12.8 q 0.65,0 1.15,0.5 0.45,0.45 0.45,1.15 0,0.7 -0.45,1.2 l -6.4,6.65 Q 32.65,49 32,49 31.3,49 30.85,48.5"
       id="path2"
       style="display:none" />
    <path
       stroke="none"
       fill="#ffffff"
       fill-opacity="0"
       d="M 30.85,48.5 Q 31.3,49 32,49 q 0.65,0 1.15,-0.5 l 6.4,-6.65 Q 40,41.35 40,40.65 40,39.95 39.55,39.5 39.05,39 38.4,39 H 25.6 q -0.7,0 -1.15,0.5 -0.45,0.45 -0.45,1.15 0,0.7 0.45,1.2 l 6.4,6.65 m 4.45,2.15 Q 33.85,52.05 32,52 30,52 28.7,50.6 l -6.4,-6.65 -0.05,-0.1 Q 21,42.5 21,40.65 21,38.75 22.25,37.5 23.55,36 25.6,36 h 12.8 q 1.85,-0.05 3.3,1.4 1.3,1.25 1.3,3.25 0,1.85 -1.2,3.2 l -0.1,0.1 -6.4,6.65 v 0.05"
       id="path3"
       style="display:none" />
  </g>
  <path
     stroke="none"
     fill="#ffffff"
     d="m 51.5,24.85 -6.65,-6.4 Q 44.35,18 43.65,18 42.95,18 42.5,18.45 42,18.9 42,19.6 v 12.8 q 0,0.65 0.5,1.15 0.45,0.45 1.15,0.45 0.7,0 1.2,-0.45 l 6.65,-6.4 Q 52,26.65 52,26 52,25.3 51.5,24.85"
     id="path4"
     style="display:inline" />
</svg>
